<svg width="48" height="48" viewBox="0 0 48 48" fill="none" xmlns="http://www.w3.org/2000/svg">
<g clip-path="url(#clip0_950_9379)">
<g clip-path="url(#clip1_950_9379)">
<path d="M30.6569 29.4L25.2571 24.0002L30.6569 18.6005C31.0026 18.2548 31.0026 17.6891 30.6569 17.3434C30.3112 16.9977 29.7455 16.9977 29.3998 17.3434L24 22.7432L18.6002 17.3434C18.2545 16.9977 17.6888 16.9977 17.3431 17.3434C16.9974 17.6891 16.9974 18.2548 17.3431 18.6005L22.7429 24.0002L17.3431 29.4C16.9974 29.7457 16.9974 30.3114 17.3431 30.6571C17.6888 31.0028 18.2545 31.0028 18.6002 30.6571L24 25.2573L29.3998 30.6571C29.7455 31.0028 30.3112 31.0028 30.6569 30.6571C31.0026 30.3114 31.0026 29.7457 30.6569 29.4Z" fill="#5A6872"/>
</g>
</g>
<defs>
<clipPath id="clip0_950_9379">
<path d="M0 24C0 10.7452 10.7452 0 24 0C37.2548 0 48 10.7452 48 24C48 37.2548 37.2548 48 24 48C10.7452 48 0 37.2548 0 24Z" fill="white"/>
</clipPath>
<clipPath id="clip1_950_9379">
<rect width="24" height="24" fill="white" transform="translate(12 12)"/>
</clipPath>
</defs>
</svg>
